# xmcd CD database file
#
# Track frame offsets:
#	187
#	12769
#	25337
#
# Disc length: 526 seconds
#
# Revision: 0
# Processed by: cddbd v1.5.1PL0 Copyright (c) Steve Scherf et al.
# Submitted via: CDex 1.51
#
DISCID=17020c03
DTITLE=4 p.m.(four positive music) - Sukiyaki
DYEAR=1994
DGENRE=Pop
TTITLE0=Sukiyaki (Lover's Groove Radio Mix)
TTITLE1=Sukiyaki (Flowin' At Cha Radio Mix)
TTITLE2=Sukiyaki (Flowin' At Cha Drum Mix)
EXTD=YEAR: 1994
EXTT0=
EXTT1=
EXTT2=
PLAYORDER=
